<svg id="Layer_1" enable-background="new 0 0 512 512" height="512" viewBox="0 0 512 512" width="512" xmlns="http://www.w3.org/2000/svg"><g><path d="m400.6 383.467h-289.2c-8.284 0-15-6.716-15-15v-112.467c0-88.004 71.596-159.6 159.6-159.6s159.6 71.596 159.6 159.6v112.467c0 8.284-6.716 15-15 15z" fill="#f0142d"/><path d="m415.6 368.467v-112.467c0-88.004-71.596-159.6-159.6-159.6v287.067h144.6c8.284 0 15-6.716 15-15z" fill="#b40000"/><g fill="#ff6400"><path d="m304.2 383.467h-96.4c-8.284 0-15-6.716-15-15v-112.467c0-35.295 28.718-63.2 63.2-63.2 34.35 0 63.2 27.765 63.2 63.2v112.467c0 8.284-6.716 15-15 15z"/><path d="m47.134 271h-32.134c-8.284 0-15-6.716-15-15s6.716-15 15-15h32.134c8.284 0 15 6.716 15 15s-6.716 15-15 15z"/><path d="m497 271h-32.134c-8.284 0-15-6.716-15-15s6.716-15 15-15h32.134c8.284 0 15 6.716 15 15s-6.716 15-15 15z"/><path d="m256 62.133c-8.284 0-15-6.716-15-15v-32.133c0-8.284 6.716-15 15-15s15 6.716 15 15v32.133c0 8.284-6.716 15-15 15z"/><path d="m67.582 164.553-27.795-16.067c-7.172-4.146-9.626-13.321-5.479-20.493 4.146-7.173 13.32-9.626 20.493-5.479l27.795 16.067c7.172 4.146 9.626 13.321 5.479 20.493-3.61 6.246-12.469 10.118-20.493 5.479z"/><path d="m423.925 159.074c-4.146-7.172-1.692-16.347 5.479-20.493l27.795-16.067c7.171-4.146 16.348-1.693 20.493 5.479 4.146 7.172 1.692 16.347-5.479 20.493l-27.795 16.067c-8.207 4.744-16.974.609-20.493-5.479z"/><path d="m138.576 82.613-16.066-27.827c-4.143-7.174-1.685-16.348 5.49-20.49s16.348-1.685 20.49 5.49l16.066 27.827c4.143 7.174 1.685 16.348-5.49 20.49-8.195 4.732-16.966.614-20.49-5.49z"/><path d="m352.934 88.104c-7.175-4.142-9.633-13.316-5.49-20.49l16.066-27.827c4.143-7.175 13.315-9.634 20.49-5.49 7.175 4.142 9.633 13.316 5.49 20.49l-16.066 27.827c-3.616 6.262-12.478 10.117-20.49 5.49z"/></g><path d="m319.2 368.467v-112.467c0-35.436-28.85-63.2-63.2-63.2v190.667h48.2c8.284 0 15-6.716 15-15z" fill="#f0142d"/><path d="m448.8 447.733h-385.6c-8.284 0-15-6.716-15-15s6.716-15 15-15c9.447 0 17.133-7.686 17.133-17.133v-32.133c0-8.284 6.716-15 15-15h321.334c8.284 0 15 6.716 15 15v32.133c0 9.447 7.686 17.133 17.133 17.133 8.284 0 15 6.716 15 15s-6.716 15-15 15z" fill="#3c3c37"/><path d="m463.8 432.733c0-8.284-6.716-15-15-15-9.447 0-17.133-7.686-17.133-17.133v-32.133c0-8.284-6.716-15-15-15h-160.667v94.267h192.8c8.284-.001 15-6.716 15-15.001z" fill="#141e14"/><path d="m464.866 512h-417.732c-8.284 0-15-6.716-15-15v-64.267c0-8.284 6.716-15 15-15h417.732c8.284 0 15 6.716 15 15v64.267c0 8.284-6.716 15-15 15z" fill="#64645a"/><path d="m479.866 497v-64.267c0-8.284-6.716-15-15-15h-208.866v94.267h208.866c8.284 0 15-6.716 15-15z" fill="#3c3c37"/></g></svg>